<svg width="40" height="42" viewBox="0 0 40 42" fill="none" xmlns="http://www.w3.org/2000/svg">
<path d="M23.496 15.375C22.9855 15.375 22.5578 15.1954 22.2127 14.8361C21.8672 14.4765 21.6945 14.0312 21.6945 13.5002V2.62481C21.6945 2.09381 21.8672 1.6485 22.2127 1.28888C22.5578 0.929626 22.9855 0.75 23.496 0.75H37.5452C38.0553 0.75 38.4831 0.929626 38.8286 1.28888C39.1737 1.6485 39.3462 2.09381 39.3462 2.62481V13.5002C39.3462 14.0312 39.1737 14.4765 38.8286 14.8361C38.4831 15.1954 38.0553 15.375 37.5452 15.375H23.496ZM2.24168 22.8748C1.73158 22.8748 1.3038 22.6952 0.958334 22.3359C0.613227 21.9767 0.440674 21.5314 0.440674 21V2.62481C0.440674 2.09381 0.613227 1.6485 0.958334 1.28888C1.3038 0.929626 1.73158 0.75 2.24168 0.75H16.2909C16.8014 0.75 17.2291 0.929626 17.5743 1.28888C17.9197 1.6485 18.0925 2.09381 18.0925 2.62481V21C18.0925 21.5314 17.9197 21.9767 17.5743 22.3359C17.2291 22.6952 16.8014 22.8748 16.2909 22.8748H2.24168ZM23.496 41.25C22.9855 41.25 22.5578 41.0704 22.2127 40.7111C21.8672 40.3515 21.6945 39.9062 21.6945 39.3752V21C21.6945 20.4686 21.8672 20.0233 22.2127 19.6641C22.5578 19.3048 22.9855 19.1252 23.496 19.1252H37.5452C38.0553 19.1252 38.4831 19.3048 38.8286 19.6641C39.1737 20.0233 39.3462 20.4686 39.3462 21V39.3752C39.3462 39.9062 39.1737 40.3515 38.8286 40.7111C38.4831 41.0704 38.0553 41.25 37.5452 41.25H23.496ZM2.24168 41.25C1.73158 41.25 1.3038 41.0704 0.958334 40.7111C0.613227 40.3515 0.440674 39.9062 0.440674 39.3752V28.4998C0.440674 27.9688 0.613227 27.5235 0.958334 27.1639C1.3038 26.8046 1.73158 26.625 2.24168 26.625H16.2909C16.8014 26.625 17.2291 26.8046 17.5743 27.1639C17.9197 27.5235 18.0925 27.9688 18.0925 28.4998V39.3752C18.0925 39.9062 17.9197 40.3515 17.5743 40.7111C17.2291 41.0704 16.8014 41.25 16.2909 41.25H2.24168Z" fill="#E0E0E0"/>
</svg>
