<svg width="41" height="50" viewBox="0 0 41 50" fill="none" xmlns="http://www.w3.org/2000/svg">
<path d="M20.7698 0C10.2698 0 0.769775 8.04939 0.769775 20.4984C0.769775 28.4478 6.89478 37.7971 19.1198 48.5713C20.0698 49.3962 21.4948 49.3962 22.4448 48.5713C34.6448 37.7971 40.7698 28.4478 40.7698 20.4984C40.7698 8.04939 31.2698 0 20.7698 0ZM20.7698 24.9981C18.0198 24.9981 15.7698 22.7483 15.7698 19.9985C15.7698 17.2487 18.0198 14.9989 20.7698 14.9989C23.5198 14.9989 25.7698 17.2487 25.7698 19.9985C25.7698 22.7483 23.5198 24.9981 20.7698 24.9981Z" fill="#DEC8A3"/>
</svg>
