<svg width="39" height="42" viewBox="0 0 39 42" fill="none" xmlns="http://www.w3.org/2000/svg">
<path d="M34.0249 27.177V9.40001C34.0249 4.61501 30.2903 0.700012 25.7257 0.700012C21.161 0.700012 17.4264 4.61501 17.4264 9.40001V32.6C17.4264 35.007 15.5729 36.95 13.2767 36.95C10.9806 36.95 9.12709 35.007 9.12709 32.6V14.823C11.9212 13.895 13.9683 11.198 13.9683 7.95001C13.9683 3.94801 10.8699 0.700012 7.05227 0.700012C3.23461 0.700012 0.136208 3.94801 0.136208 7.95001C0.136208 11.198 2.18336 13.895 4.97745 14.823V32.6C4.97745 37.385 8.71213 41.3 13.2767 41.3C17.8413 41.3 21.576 37.385 21.576 32.6V9.40001C21.576 6.99301 23.4295 5.05001 25.7257 5.05001C28.0218 5.05001 29.8753 6.99301 29.8753 9.40001V27.177C27.0812 28.105 25.034 30.802 25.034 34.05C25.034 38.052 28.1324 41.3 31.9501 41.3C35.7678 41.3 38.8662 38.052 38.8662 34.05C38.8662 30.802 36.819 28.105 34.0249 27.177Z" fill="#E0E0E0"/>
</svg>
