<svg width="34" height="38" viewBox="0 0 34 38" fill="none" xmlns="http://www.w3.org/2000/svg">
<path d="M0.743744 27V8C0.743744 6.5 1.11445 5.23617 1.85586 4.2085C2.5976 3.1805 3.67032 2.35817 5.074 1.7415C6.47769 1.12483 8.18992 0.680499 10.2107 0.408499C12.2315 0.136166 14.5099 0 17.0459 0C19.7402 0 22.1035 0.130501 24.1358 0.391501C26.1678 0.652834 27.8659 1.09183 29.2302 1.7085C30.5942 2.32517 31.6216 3.14183 32.3124 4.1585C33.0028 5.17517 33.3481 6.45567 33.3481 8V27C33.3481 28.9667 32.6603 30.625 31.2848 31.975C29.9093 33.325 28.2197 34 26.2159 34L27.4385 35.2C27.9707 35.7223 28.0952 36.3195 27.812 36.9915C27.529 37.6638 27.0026 38 26.2327 38C26.0177 38 25.8112 37.9638 25.6132 37.8915C25.4149 37.8195 25.2308 37.7002 25.061 37.5335L21.4612 34H12.6306L9.03084 37.5335C8.86103 37.7002 8.67695 37.8195 8.47861 37.8915C8.2806 37.9638 8.07411 38 7.85913 38C7.12315 38 6.60522 37.6638 6.30533 36.9915C6.0051 36.3195 6.12108 35.7223 6.65328 35.2L7.87594 34C5.87213 34 4.18248 33.325 2.80699 31.975C1.43149 30.625 0.743744 28.9667 0.743744 27ZM4.1402 16.5H15.4834V9.3335H4.1402V16.5ZM18.8799 16.5H29.9516V9.3335H18.8799V16.5ZM9.74406 28.1665C10.5592 28.1665 11.244 27.8943 11.7986 27.35C12.3533 26.8057 12.6306 26.1335 12.6306 25.3335C12.6306 24.5335 12.3533 23.8612 11.7986 23.3165C11.244 22.7722 10.5592 22.5 9.74406 22.5C8.92896 22.5 8.24392 22.7722 7.68897 23.3165C7.13436 23.8612 6.85705 24.5335 6.85705 25.3335C6.85705 26.1335 7.13436 26.8057 7.68897 27.35C8.24392 27.8943 8.92896 28.1665 9.74406 28.1665ZM24.3477 28.1665C25.1628 28.1665 25.8479 27.8943 26.4028 27.35C26.9574 26.8057 27.2348 26.1335 27.2348 25.3335C27.2348 24.5335 26.9574 23.8612 26.4028 23.3165C25.8479 22.7722 25.1628 22.5 24.3477 22.5C23.5326 22.5 22.8478 22.7722 22.2932 23.3165C21.7385 23.8612 21.4612 24.5335 21.4612 25.3335C21.4612 26.1335 21.7385 26.8057 22.2932 27.35C22.8478 27.8943 23.5326 28.1665 24.3477 28.1665Z" fill="#E0E0E0"/>
</svg>
